<svg xmlns="http://www.w3.org/2000/svg" width="16" height="16" viewBox="0 0 16 16"><defs><style>.a,.b{fill:#666;}.a{opacity:0;}</style></defs><g transform="translate(-0.265 -0.097)"><g transform="translate(0 0)"><rect class="a" width="16" height="16" transform="translate(0.265 0.097)"/><path class="b" d="M14.9,13.944l-2.284-2.277a5.321,5.321,0,0,0,1.135-3.292,5.374,5.374,0,1,0-5.374,5.374,5.321,5.321,0,0,0,3.292-1.135L13.944,14.9a.675.675,0,1,0,.954-.954ZM4.344,8.374a4.031,4.031,0,1,1,4.031,4.031A4.031,4.031,0,0,1,4.344,8.374Z" transform="translate(-0.549 -1.252)"/></g></g></svg>